<?xml version="1.0" encoding="utf-8"?>
<!-- Generator: Adobe Illustrator 16.0.4, SVG Export Plug-In . SVG Version: 6.00 Build 0)  -->
<!DOCTYPE svg PUBLIC "-//W3C//DTD SVG 1.1//EN" "http://www.w3.org/Graphics/SVG/1.1/DTD/svg11.dtd">
<svg version="1.1" id="レイヤー_1" xmlns="http://www.w3.org/2000/svg" xmlns:xlink="http://www.w3.org/1999/xlink" x="0px"
	 y="0px" width="150px" height="37px" viewBox="0 0 150 37" enable-background="new 0 0 150 37" xml:space="preserve">
<g>
	<path fill="#7AB266" d="M19.7,36.8V18c-0.8,0.3-1.8,0.6-2.6,0.8l-0.2,0.1l-0.1-0.2c-0.2-0.5-0.7-1.1-1.1-1.5l-0.4-0.3
		C15,30.3,14.6,34,13.6,35.3c-0.7,1-1.6,1.2-2.4,1.2l0,0c-0.3,0-0.6,0-0.9,0c-0.9,0-2.1,0-3.3-0.1l-0.3,0l0-0.3
		c0-0.5-0.2-1.2-0.5-1.6L5.7,34l0.6,0c1.8,0.1,3.5,0.2,4.2,0.2c0.6,0,0.8-0.1,1-0.3c0.6-0.8,1-5.4,1.3-16.5H7.7
		c-0.2,5.2-1,12.7-5.8,19.2l-0.2,0.3l-0.3-0.2c-0.2-0.2-0.9-0.7-1.4-1l-0.3-0.2L0,35.2c4.7-6.5,5.4-14.1,5.4-20.7V9.7H0.5V7.3H17
		v2.4H7.7v5.2h7.6v1.4c0,0.1,0,0.3,0,0.4l0.5-0.1c6.7-1.5,13.6-4.7,16.5-6.9l0.2-0.1l1.9,1.5l-0.3,0.2c-1.7,1.2-4.1,2.6-7,3.9
		c1.8,11.1,7.1,16.3,11.2,18.8l0.3,0.2l-1.8,2L36.6,36c-3.7-2.6-6.3-5.4-8.1-8.7c-1.6-2.9-2.7-6.4-3.6-11.3
		c-0.9,0.4-1.8,0.7-2.7,1.1v19.7H19.7z M16.1,14.6c-0.3-0.3-1.1-0.9-1.5-1.2l-0.4-0.2l0.3-0.3c2.8-2.8,5.1-7.1,6.5-11.9l0.1-0.3
		l2.5,0.6l-0.1,0.3c-0.5,1.5-1,3.1-1.7,4.7h14.3v2.3H20.6c-1.2,2.4-2.6,4.4-4.1,5.9l-0.2,0.2L16.1,14.6z"/>
	<path fill="#7AB266" d="M86.6,36.6c-1.4,0-3.2-0.7-4.8-1.8c-2.4-1.7-2.8-3.4-2.8-4.2c0-3.2,4.1-6.4,8.1-8.2v-1.6
		c0-1.6,0-3.6,0.1-5.6c-1.2,0.1-2.2,0.2-2.9,0.2c-1.6,0-3.1-0.1-4.5-0.2l-0.3,0l-0.1-2.6l0.4,0.1c1.8,0.2,3,0.3,4.5,0.3
		c0.8,0,1.7-0.1,3-0.2c0-0.6,0-1.1,0-1.6c0-1.5,0-2.6,0-3.1c0-0.7-0.1-1.6-0.2-2.2l-0.1-0.4h3l0,0.4C90,6.5,89.9,7.3,89.9,8
		c0,0.4,0,1.1,0,1.9c0,0.7,0,1.6-0.1,2.6c2.9-0.4,5.8-0.9,7.7-1.6l0.4-0.1l0.1,2.7l-0.3,0.1c-2.3,0.6-5.4,1.1-8.1,1.4
		c0,1.8-0.1,4-0.1,5.7v0.8c3.1-1,6.1-1.5,8.6-1.5c2.6,0,4.9,0.7,6.6,2.1c1.7,1.3,2.6,3.2,2.6,5.3c0,4.4-2.8,7.3-8,8.6
		c-0.9,0.2-1.8,0.3-2.6,0.3c-0.7,0-1.4-0.1-2-0.2l-0.2,0l-0.9-2.6l0.6,0.1c0.9,0.2,1.6,0.3,2.2,0.3c0.6,0,1.2-0.1,1.9-0.2
		c1.9-0.4,6.5-1.7,6.5-6.1c0-3.5-3.3-5-6.6-5c-2.9,0-5.5,0.5-8.5,1.6c0,1.5,0.1,3,0.1,4.4c0,1.6,0.1,3.1,0.1,4
		C89.8,35.2,88.7,36.6,86.6,36.6z M87.2,25.1c-3.2,1.5-5.6,3.9-5.6,5.5c0,1.7,2.9,3.4,4.6,3.4c0.7,0,1.1-0.6,1.1-1.6
		c0-0.9,0-2.4-0.1-4C87.3,27.3,87.2,26.2,87.2,25.1z"/>
	<path fill="#7AB266" d="M118.1,36.2V15.8c-1.5,2.1-2.9,3.8-4.2,5.1l-0.3,0.3l-0.2-0.4c-0.2-0.4-0.8-1.3-1.1-1.7L112,19l0.2-0.2
		c4.1-3.9,7.9-10,10.3-16.3l0.1-0.3l2.4,0.7l-0.1,0.3c-1.2,3.1-2.7,6-4.2,8.7v24.3H118.1z"/>
	<path fill="#7AB266" d="M123.3,26.4v-2.4h6.6V13.5h-5.6v-2.4h5.6V2.6h2.4v8.5h8.4V2.6h2.3v8.5h6v2.4h-6v10.4h6.6v2.4H123.3z
		 M140.8,23.9V13.5h-8.4v10.4H140.8z"/>
	<path fill="#7AB266" d="M130.2,35.8c-1.6,0-2.9-1.3-2.9-2.9c0-1.6,1.3-2.9,2.9-2.9s2.9,1.3,2.9,2.9
		C133.1,34.5,131.8,35.8,130.2,35.8z"/>
	<path fill="#7AB266" d="M9.5,5.6c-1.6,0-2.9-1.3-2.9-2.9c0-1.6,1.3-2.9,2.9-2.9s2.9,1.3,2.9,2.9C12.4,4.3,11.1,5.6,9.5,5.6z"/>
	<path fill="#7AB266" d="M34.3,23.6c-1.6,0-2.9-1.3-2.9-2.9c0-1.6,1.3-2.9,2.9-2.9s2.9,1.3,2.9,2.9C37.2,22.3,35.9,23.6,34.3,23.6z"
		/>
	<path fill="#7AB266" d="M104.7,16.7c-1.6,0-2.9-1.3-2.9-2.9c0-1.6,1.3-2.9,2.9-2.9c1.6,0,2.9,1.3,2.9,2.9
		C107.5,15.4,106.2,16.7,104.7,16.7z"/>
	<path fill="#7AB266" d="M142.8,35.8c-1.6,0-2.9-1.3-2.9-2.9c0-1.6,1.3-2.9,2.9-2.9c1.6,0,2.9,1.3,2.9,2.9
		C145.7,34.5,144.4,35.8,142.8,35.8z"/>
	<path fill="#7AB266" d="M59.8,36.8v-2.5h0.3c1.2,0,4.3-0.1,6.9-1.6c3.1-1.7,4.7-4.7,4.7-8.9c0-3.6-1.5-6.4-4.4-8.3
		c-2.5-1.6-5.3-2-6.6-2.2c-0.2,3.4-1,13.2-3.7,17.2c-1.9,2.8-4.1,3.7-5.6,3.9c-0.3,0.1-0.7,0.1-1,0.1c-0.9,0-1.6-0.2-1.9-0.3
		c-0.4-0.1-1.9-0.6-3.2-2.1c-2.3-2.7-2.1-6.6-1.5-9.4c0.9-4.2,3.3-7.5,6.8-9.6c3.7-2.2,7.4-2.4,8.9-2.4c1.2,0,5.4,0.2,9.2,2.6
		c3.7,2.3,5.6,6,5.6,10.5c0,2.8-0.6,5.2-1.8,7.1c-1,1.7-2.4,3-4.2,4c-3,1.7-6.4,1.9-8.1,1.9H59.8z M58.2,13.4
		c-2.2,0.2-4.5,0.9-6.3,2c-3,1.8-4.9,4.4-5.6,7.9c-0.7,3.2-0.3,5.6,1,7.2c0.9,1,1.9,1.3,2,1.3l0.1,0l0.1,0c0,0,0.4,0.2,1.1,0.2
		c1.2,0,2.9-0.5,4.5-2.8c1.2-1.7,2.1-5.3,2.8-10.1C57.9,16.7,58.1,14.6,58.2,13.4z"/>
</g>
</svg>
