<svg xmlns="http://www.w3.org/2000/svg" width="28" height="34" viewBox="0 0 28 34"><path fill="#F47171" d="M27.3 13.7c0-7.1-5.899-13-13.3-13-7.4 0-13.3 5.8-13.3 13 0 5.7 3.7 10.5 8.9 12.2l4.3 6.699 4.3-6.699c5.3-1.7 9.1-6.6 9.1-12.2z"/><path fill="#E25959" d="M14 34l-4.8-7.5c-5.5-2-9.2-7.1-9.2-12.8 0-7.6 6.3-13.7 14-13.7s14 6.1 14 13.7c0 5.7-3.7 10.899-9.2 12.8l-4.8 7.5zm0-32.5c-6.9 0-12.5 5.4-12.5 12.2 0 5.2 3.4 9.8 8.4 11.6l.2.101 3.8 6 3.8-6 .2-.101c5-1.7 8.398-6.3 8.398-11.6.202-6.8-5.398-12.2-12.298-12.2z"/><path fill="#FFDC8F" d="M6 11.6c0-.2.2-.4.5-.4l4.8-.7 2.2-4.2c.2-.3.3-.5.5-.5s.3.1.5.4l2.2 4.2 4.8.7c.4.1.5.2.5.4 0 .1-.1.3-.2.5l-3.5 3.3.8 4.7v.2c0 .1 0 .2-.1.3s-.2.1-.3.1c-.101 0-.3 0-.4-.1l-4.3-2.2-4.3 2.2c-.1.1-.3.1-.4.1-.1 0-.2 0-.3-.1s-.1-.2-.1-.3v-.2l.8-4.7-3.4-3.3c-.2-.2-.3-.3-.3-.4z"/></svg>